<svg width="73" height="86" viewBox="0 0 73 86" fill="none" xmlns="http://www.w3.org/2000/svg">
<path d="M45.8725 15.092L45.8703 15.0914C39.4231 13.3948 35.5127 10.0881 34.9659 9.60498C31.7824 7.05907 28.0571 5.72641 24.1824 5.72641C14.0936 5.72641 5.72502 14.7924 5.72502 26.1403V26.1403C5.72502 26.1712 5.72492 30.3267 6.30728 36.5065L6.30729 36.5066C6.76496 41.3673 8.44048 46.0893 11.1516 50.1584C11.3439 50.4465 11.47 50.7732 11.5216 51.1147L45.8725 15.092ZM45.8725 15.092C46.0692 15.1433 46.2705 15.1695 46.4723 15.1695C47.5201 15.1695 48.4773 14.4683 48.7562 13.4068L48.7562 13.4066C49.0872 12.1456 48.3351 10.853 47.0722 10.5205L47.0721 10.5205C44.3759 9.81121 42.1987 8.75657 40.6585 7.84646M45.8725 15.092L40.6585 7.84646M40.6585 7.84646C43.1925 6.449 45.9645 5.72641 48.8176 5.72641C58.9061 5.72641 67.2748 14.7923 67.2748 26.1432V26.1433C67.2748 26.1757 67.2751 30.3181 66.6927 36.5067C66.2347 41.3684 64.5588 46.0904 61.8477 50.1585L62.6798 50.7131L61.8477 50.1586C61.6559 50.4463 61.5295 50.7728 61.4778 51.1151C61.4778 51.1154 61.4777 51.1157 61.4777 51.116L62.4665 51.2649C62.0884 53.7611 61.8429 56.043 61.6057 58.2483L61.603 58.2735C60.8031 65.7251 60.1709 71.6102 55.1383 79.5069M40.6585 7.84646L10.5329 51.2647C10.9113 53.7592 11.1565 56.0398 11.3936 58.2446L11.3968 58.2742C12.1973 65.7249 12.8297 71.61 17.8615 79.5068C18.7962 80.9744 20.2732 81.5835 21.8114 81.132C23.1014 80.7559 24.6077 79.4672 24.6077 77.0723V68.0082C24.6077 60.905 29.9424 55.1263 36.5002 55.1263C43.0576 55.1263 48.3923 60.9048 48.3923 68.0084V77.0725C48.3923 79.4676 49.8984 80.7561 51.1886 81.1322C52.7224 81.5825 54.2032 80.9735 55.1383 79.5069M55.1383 79.5069L54.2952 78.9693C54.2951 78.9694 54.2951 78.9694 54.295 78.9695L55.1383 79.5069ZM36.5002 4.86412C40.1933 2.33481 44.4183 1 48.8176 1C61.6794 1 72 12.3583 72 26.1404M36.5002 4.86412L65.1165 51.9688M36.5002 4.86412C32.8068 2.33483 28.5818 1 24.1824 1C11.3212 1 1.00085 12.3573 1.00003 26.1361C1.00003 26.1366 1.00003 26.1372 1.00003 26.1377H2.00003L36.5002 4.86412ZM72 26.1404H71L72 26.1373C72 26.1382 72 26.1393 72 26.1404ZM72 26.1404C72.0006 26.3752 71.9968 30.5748 71.3972 36.9498L71.3972 36.9501C70.8822 42.4114 69.0443 47.7164 66.0742 52.3299M66.0742 52.3299C66.0846 52.2586 66.0951 52.187 66.1057 52.1154L65.1165 51.9688M66.0742 52.3299C65.7489 54.56 65.5255 56.6382 65.3072 58.672L65.3044 58.6982C64.4977 66.2083 63.7814 72.8769 58.2801 81.5096C56.873 83.7177 54.6043 85 52.1553 85C51.4883 85 50.8135 84.9044 50.1458 84.7099L50.1453 84.7098C46.8347 83.7436 44.6671 80.6399 44.6671 77.0725V68.0084C44.6671 62.8623 40.9087 58.8527 36.5002 58.8527C32.0916 58.8527 28.3327 62.8624 28.3327 68.0084V77.0725C28.3327 80.6399 26.1651 83.7436 22.8547 84.7098L22.8542 84.7099C19.7166 85.6237 16.5176 84.3312 14.7197 81.5096M66.0742 52.3299C66.0342 52.3919 65.9941 52.4538 65.9538 52.5156L65.1165 51.9688M65.1165 51.9688L14.7197 81.5096M14.7197 81.5096C14.7197 81.5096 14.7197 81.5096 14.7197 81.5096L15.5631 80.9722M14.7197 81.5096L15.5631 80.9722M14.7197 81.5096C9.21876 72.8776 8.50228 66.2088 7.69535 58.6983L7.69264 58.6732L7.69264 58.6731C7.47428 56.6391 7.25094 54.5601 6.92518 52.33M14.7197 81.5096L6.92518 52.33M14.7197 81.5096L15.5631 80.9722M14.7197 81.5096L15.5631 80.9722M6.92518 52.33C6.96508 52.392 7.00518 52.4538 7.04549 52.5156L7.88278 51.9688L6.89361 52.1156C6.90424 52.1872 6.91476 52.2587 6.92518 52.33ZM21.1342 22.1223V20.3618H22.8927C24.1979 20.3618 25.2553 19.3034 25.2553 17.9987C25.2553 16.6939 24.198 15.6355 22.8927 15.6355H21.1342V13.8756C21.1342 12.5706 20.0768 11.5126 18.7716 11.5126C17.4665 11.5126 16.409 12.5706 16.409 13.8756V15.6355H14.6505C13.3452 15.6355 12.288 16.6939 12.288 17.9987C12.288 19.3034 13.3453 20.3618 14.6505 20.3618H16.409V22.1223C16.409 23.4271 17.4663 24.4855 18.7716 24.4855C20.0769 24.4855 21.1342 23.4271 21.1342 22.1223Z" fill="white" stroke="white" stroke-width="2"/>
</svg>
