<svg width="126" height="126" viewBox="0 0 126 126" fill="none" xmlns="http://www.w3.org/2000/svg">
<g clip-path="url(#clip0_539_733)">
<path d="M65.9564 31.0985C63.1208 18.4369 59.9017 16.972 57.7263 16.972C54.6776 16.972 53.8641 21.0357 52.6332 27.1853C52.0858 29.9201 51.1032 34.8379 50.1338 36.1697C48.9811 34.981 47.9935 29.3786 47.5051 26.6019C46.4826 20.8035 45.809 16.972 42.7872 16.972C40.6118 16.972 37.3939 18.4369 34.5571 31.0997C32.9861 38.11 32.1378 45.8817 32.1378 49.6351C32.1378 58.5386 36.6176 65.0016 42.7872 65.0016C44.4822 65.0016 46.0221 64.2723 47.3779 63.6297C48.4505 63.1222 49.4613 62.6429 50.2566 62.6429C51.0522 62.6429 52.0627 63.1222 53.1353 63.6297C54.492 64.272 56.0322 65.0016 57.726 65.0016C63.8959 65.0016 68.3746 58.5386 68.3755 49.6342C68.3758 45.8805 67.5274 38.1097 65.9564 31.0985ZM57.7263 60.9987C56.9307 60.9987 55.9202 60.5194 54.8476 60.0119C53.4909 59.3697 51.9507 58.64 50.2569 58.64C48.5628 58.64 47.0229 59.3685 45.668 60.0119C44.5953 60.5194 43.5846 60.9987 42.7893 60.9987C38.9989 60.9987 36.1421 56.1137 36.1421 49.6348C36.1421 40.6182 39.5644 24.0392 42.2768 21.3206C42.7462 22.6515 43.2263 25.3739 43.5646 27.2973C44.6924 33.694 45.857 40.3092 50.2657 40.3253C54.0921 40.3083 55.2357 34.592 56.5604 27.9718C56.9937 25.8014 57.612 22.7057 58.1804 21.3027C60.9409 23.9853 64.3731 40.6044 64.3731 49.6348C64.3734 56.1128 61.5155 60.9987 57.7263 60.9987Z" fill="white"/>
<path d="M33.9368 31.0985C31.1012 18.4369 27.8822 16.972 25.7067 16.972C22.658 16.972 21.8445 21.0357 20.6136 27.1853C20.0663 29.9201 19.0836 34.8379 18.1142 36.1697C16.9615 34.981 15.9739 29.3786 15.4855 26.6019C14.463 20.8035 13.7894 16.972 10.7676 16.972C8.59217 16.972 5.3743 18.4369 2.53751 31.0997C0.966533 38.11 0.118164 45.8817 0.118164 49.6351C0.118164 58.5386 4.59775 65.0016 10.7676 65.0016C12.4626 65.0016 14.0025 64.2723 15.3583 63.6297C16.4309 63.1222 17.4417 62.6429 18.237 62.6429C19.0326 62.6429 20.0431 63.1222 21.1157 63.6297C22.4724 64.272 24.0126 65.0016 25.7064 65.0016C31.8763 65.0016 36.355 58.5386 36.3559 49.6342C36.3565 45.8805 35.5078 38.1097 33.9368 31.0985ZM25.707 60.9987C24.9114 60.9987 23.9009 60.5194 22.8283 60.0119C21.4716 59.3697 19.9314 58.64 18.2376 58.64C16.5435 58.64 15.0036 59.3685 13.6487 60.0119C12.576 60.5194 11.5653 60.9987 10.77 60.9987C6.97957 60.9987 4.12285 56.1137 4.12285 49.6348C4.12285 40.6182 7.54505 24.0392 10.2575 21.3206C10.7269 22.6515 11.207 25.3739 11.5453 27.2973C12.6731 33.694 13.8378 40.3092 18.2464 40.3253C22.0728 40.3083 23.2164 34.592 24.5412 27.9718C24.9744 25.8014 25.5927 22.7057 26.1611 21.3027C28.9216 23.9853 32.3538 40.6044 32.3538 49.6348C32.3538 56.1128 29.4962 60.9987 25.707 60.9987Z" fill="white"/>
<path d="M97.9757 31.0985C95.1401 18.4369 91.921 16.972 89.7456 16.972C86.6968 16.972 85.8834 21.0357 84.6524 27.1853C84.1051 29.9201 83.1225 34.8379 82.1531 36.1697C81.0004 34.981 80.0128 29.3786 79.5244 26.6019C78.5019 20.8035 77.8283 16.972 74.8065 16.972C72.6311 16.972 69.4132 18.4369 66.5764 31.0997C65.0054 38.11 64.157 45.8817 64.157 49.6351C64.157 58.5386 68.6366 65.0016 74.8065 65.0016C76.5015 65.0016 78.0414 64.2723 79.3972 63.6297C80.4698 63.1222 81.4806 62.6429 82.2759 62.6429C83.0715 62.6429 84.082 63.1222 85.1546 63.6297C86.5113 64.272 88.0515 65.0016 89.7453 65.0016C95.9152 65.0016 100.394 58.5386 100.395 49.6342C100.395 45.8805 99.5467 38.1097 97.9757 31.0985ZM89.7459 60.9987C88.9503 60.9987 87.9398 60.5194 86.8672 60.0119C85.5105 59.3697 83.9703 58.64 82.2765 58.64C80.5824 58.64 79.0425 59.3685 77.6875 60.0119C76.6149 60.5194 75.6042 60.9987 74.8088 60.9987C71.0184 60.9987 68.1617 56.1137 68.1617 49.6348C68.1617 40.6182 71.5839 24.0392 74.2964 21.3206C74.7658 22.6515 75.2459 25.3739 75.5842 27.2973C76.712 33.694 77.8766 40.3092 82.2853 40.3253C86.1117 40.3083 87.2553 34.592 88.58 27.9718C89.0133 25.8014 89.6315 22.7057 90.2 21.3027C92.9605 23.9853 96.3927 40.6044 96.3927 49.6348C96.393 56.1128 93.5351 60.9987 89.7459 60.9987Z" fill="white"/>
<path d="M81.7409 60.9987C80.0459 60.9987 78.506 61.728 77.1502 62.3706C76.0776 62.878 75.0668 63.3573 74.2715 63.3573C73.4759 63.3573 72.4654 62.878 71.3928 62.3706C70.0361 61.7283 68.4959 60.9987 66.8021 60.9987C60.6322 60.9987 56.1535 67.4617 56.1526 76.366C56.1526 80.1192 57.0013 87.8899 58.572 94.9014C61.4076 107.563 64.6267 109.028 66.8021 109.028C69.8508 109.028 70.6643 104.965 71.8932 98.8158C72.4405 96.0811 73.4252 91.1612 74.3946 89.8294C75.5452 91.0181 76.5328 96.6196 77.0212 99.3963C78.0437 105.196 78.7191 109.028 81.7412 109.028C83.9166 109.028 87.1345 107.563 89.9713 94.9006C91.5423 87.8902 92.3906 80.1186 92.3906 76.3652C92.3904 67.4617 87.9108 60.9987 81.7409 60.9987ZM82.2513 104.679C81.7799 103.35 81.3018 100.625 80.9614 98.7006C79.8357 92.3047 78.6711 85.6908 74.2624 85.6746C70.436 85.6908 69.2924 91.4092 67.9677 98.0302C67.5344 100.199 66.9141 103.293 66.3477 104.696C63.5872 102.013 60.155 85.3956 60.155 76.3652C60.155 69.8872 63.0126 65.0013 66.8021 65.0013C67.5977 65.0013 68.6082 65.4806 69.6788 65.988C71.0354 66.6303 72.5756 67.36 74.2694 67.36C75.9635 67.36 77.5043 66.6315 78.8601 65.988C79.9328 65.4806 80.9435 65.0013 81.7388 65.0013C85.5292 65.0013 88.386 69.8863 88.386 76.3652C88.386 85.3827 84.964 101.963 82.2513 104.679Z" fill="white"/>
<path d="M113.76 60.9987C112.066 60.9987 110.526 61.7271 109.17 62.3706C108.097 62.878 107.086 63.3573 106.291 63.3573C105.495 63.3573 104.485 62.878 103.412 62.3706C102.056 61.7283 100.515 60.9987 98.8217 60.9987C92.6518 60.9987 88.1722 67.4617 88.1722 76.3652C88.1722 80.1183 89.0206 87.8891 90.5916 94.9006C93.4272 107.562 96.6462 109.027 98.8217 109.027C101.87 109.027 102.683 104.965 103.913 98.8158C104.46 96.0811 105.445 91.1612 106.414 89.8294C107.565 91.019 108.552 96.6196 109.041 99.3963C110.063 105.196 110.739 109.028 113.761 109.028C115.936 109.028 119.154 107.563 121.991 94.9006C123.562 87.8902 124.41 80.1186 124.41 76.3652C124.41 67.4617 119.93 60.9987 113.76 60.9987ZM114.271 104.679C113.799 103.35 113.321 100.625 112.981 98.7006C111.855 92.3047 110.691 85.6908 106.282 85.6746C102.456 85.6916 101.312 91.4101 99.9872 98.0302C99.554 100.199 98.9337 103.293 98.3673 104.696C95.6067 102.013 92.1746 85.3956 92.1746 76.3652C92.1746 69.8872 95.0322 65.0013 98.8217 65.0013C99.6173 65.0013 100.628 65.4806 101.698 65.988C103.055 66.6303 104.595 67.36 106.289 67.36C107.983 67.36 109.524 66.6315 110.88 65.988C111.952 65.4806 112.963 65.0013 113.758 65.0013C117.549 65.0013 120.406 69.8863 120.406 76.3652C120.406 85.3827 116.983 101.963 114.271 104.679Z" fill="white"/>
<path d="M49.7216 60.9987C48.0266 60.9987 46.4867 61.728 45.1309 62.3706C44.0583 62.878 43.0475 63.3573 42.2522 63.3573C41.4566 63.3573 40.4461 62.878 39.3735 62.3706C38.0168 61.7283 36.4766 60.9987 34.7828 60.9987C28.6129 60.9987 24.1342 67.4617 24.1334 76.366C24.1334 80.1192 24.982 87.8899 26.5527 94.9014C29.3883 107.563 32.6074 109.028 34.7828 109.028C37.8316 109.028 38.645 104.964 39.8739 98.8147C40.4212 96.0799 41.4059 91.16 42.3753 89.8282C43.5259 91.0178 44.5136 96.6193 45.0019 99.3951C46.0244 105.196 46.6998 109.028 49.7219 109.028C51.8973 109.028 55.1152 107.563 57.952 94.9003C59.523 87.8899 60.3714 80.1183 60.3714 76.3649C60.3711 67.4617 55.8912 60.9987 49.7216 60.9987ZM50.2317 104.679C49.7603 103.35 49.2822 100.625 48.9418 98.7006C47.8162 92.3039 46.6515 85.6896 42.2428 85.6737C38.4164 85.6908 37.2728 91.4092 35.9481 98.0302C35.5148 100.199 34.8945 103.293 34.3281 104.696C31.5676 102.013 28.1354 85.3956 28.1354 76.3651C28.1354 69.8872 30.993 65.0013 34.7825 65.0013C35.5781 65.0013 36.5886 65.4806 37.6592 65.988C39.0159 66.6303 40.5561 67.36 42.2499 67.36C43.944 67.36 45.4847 66.6315 46.8406 65.988C47.9132 65.4806 48.924 65.0013 49.7193 65.0013C53.5097 65.0013 56.3664 69.8863 56.3664 76.3651C56.3664 85.3827 52.9445 101.963 50.2317 104.679Z" fill="white"/>
<path d="M125.313 40.5033L117.387 33.5933C116.556 32.8698 115.293 32.9527 114.563 33.7864C113.836 34.6199 113.924 35.8827 114.756 36.61L120.938 41.9984L114.77 47.2756C113.93 47.9941 113.832 49.2567 114.551 50.0975C114.949 50.5598 115.509 50.7969 116.072 50.7969C116.534 50.7969 116.997 50.6389 117.374 50.3176L125.301 43.5336C125.742 43.1554 125.998 42.6031 126 42.0215C126.002 41.4399 125.752 40.8856 125.313 40.5033Z" fill="white"/>
<path d="M115.307 40.5033L107.381 33.5933C106.55 32.8698 105.286 32.9527 104.557 33.7864C103.83 34.6199 103.918 35.8827 104.75 36.61L110.932 41.9984L104.764 47.2756C103.924 47.9941 103.826 49.2567 104.545 50.0975C104.942 50.5598 105.504 50.7969 106.066 50.7969C106.527 50.7969 106.991 50.6389 107.368 50.3176L115.295 43.5336C115.736 43.1554 115.992 42.6031 115.994 42.0215C115.996 41.4399 115.746 40.8856 115.307 40.5033Z" fill="white"/>
<path d="M21.2503 84.5302L13.3236 77.6198C12.4931 76.8964 11.2302 76.9805 10.5 77.813C9.77238 78.6464 9.86062 79.9093 10.6932 80.6366L16.875 86.025L10.7072 91.3022C9.86677 92.0207 9.76857 93.2833 10.4882 94.124C10.8855 94.5863 11.4468 94.8235 12.0091 94.8235C12.4705 94.8235 12.9337 94.6655 13.311 94.3442L21.2377 87.5602C21.6789 87.182 21.9351 86.6297 21.9371 86.0481C21.9392 85.4665 21.6885 84.9125 21.2503 84.5302Z" fill="white"/>
<path d="M11.244 84.5302L3.31726 77.6198C2.48882 76.8964 1.22389 76.9805 0.493662 77.813C-0.23393 78.6464 -0.145692 79.9093 0.686846 80.6366L6.86874 86.025L0.700624 91.3022C-0.139829 92.0207 -0.238034 93.2833 0.48135 94.124C0.878564 94.5863 1.43994 94.8235 2.0022 94.8235C2.46361 94.8235 2.92679 94.6655 3.30407 94.3442L11.2308 87.5602C11.672 87.182 11.9282 86.6297 11.9302 86.0481C11.9323 85.4665 11.6822 84.9125 11.244 84.5302Z" fill="white"/>
</g>
<defs>
<clipPath id="clip0_539_733">
<rect width="126" height="126" fill="white"/>
</clipPath>
</defs>
</svg>
