<svg width="50" height="36" viewBox="0 0 50 36" fill="none" xmlns="http://www.w3.org/2000/svg">
<path d="M21.3357 17.433C22.3283 18.3782 23.6414 18.9056 25.0068 18.9077C26.3722 18.9097 27.6869 18.3861 28.6821 17.4438L46.6732 0.4086C46.0296 0.139225 45.3397 0.000377435 44.6429 0H5.35714C4.69671 0.00380147 4.04273 0.13137 3.42857 0.3762L21.3357 17.433Z" fill="white"/>
<path d="M31.1268 20.0682C29.4666 21.636 27.2759 22.5069 25.0009 22.5035C22.726 22.5002 20.5378 21.6229 18.8821 20.0502L0.714286 2.7486C0.251264 3.55465 0.00504842 4.46859 0 5.4V30.6C0 32.0322 0.564412 33.4057 1.56907 34.4184C2.57373 35.4311 3.93634 36 5.35714 36H44.6429C46.0637 36 47.4263 35.4311 48.4309 34.4184C49.4356 33.4057 50 32.0322 50 30.6V5.4C49.994 4.50142 49.7624 3.61901 49.3268 2.835L31.1268 20.0682Z" fill="white"/>
</svg>
