<svg width="22" height="42" viewBox="0 0 22 42" fill="none" xmlns="http://www.w3.org/2000/svg">
<path d="M6.12857 23.7279H1.06857C0.251428 23.7279 0 23.4051 0 22.6303C0 20.5319 0 18.3689 0 16.2706C0 15.4312 0.314285 15.1084 1.06857 15.1084H6.12857V10.4919C6.06571 8.45811 6.53714 6.39201 7.51143 4.55188C8.54857 2.71176 10.1829 1.35588 12.0686 0.67794C13.3571 0.193697 14.6143 0 15.9657 0H20.9629C21.6857 0 22 0.322829 22 1.06533V7.03766C22 7.78017 21.6857 8.103 20.9629 8.103C19.58 8.103 18.1971 8.103 16.8143 8.16756C15.4314 8.23213 14.7086 8.8455 14.7086 10.3305C14.6457 11.9124 14.7086 13.4297 14.7086 15.0438H20.5857C21.4029 15.0438 21.7171 15.3666 21.7171 16.206V22.5657C21.7171 23.4051 21.4657 23.7279 20.5857 23.7279H14.7714V40.8055C14.7714 41.7094 14.4571 42 13.6086 42H7.22857C6.47429 42 6.16 41.6772 6.16 40.9024L6.12857 23.7279Z" fill="white"/>
</svg>
