<svg width="68" height="73" viewBox="0 0 68 73" fill="none" xmlns="http://www.w3.org/2000/svg">
<path d="M40.6324 12.8421C40.5472 12.8685 40.4621 12.8948 40.3769 12.9212C34.0034 14.8736 27.8787 15.0715 21.7934 11.9055C15.7932 8.77904 6.7733 8.2184 2.8103 14.834C1.36265 17.2481 0.786218 20.0843 0.452147 22.8875C-0.720377 32.6625 0.511101 43.7699 2.72514 53.3536C4.21208 59.7978 7.18597 68.2932 13.1468 71.8813C14.6272 72.7718 16.5138 73.3126 18.0466 72.5343C19.1274 71.9868 19.8283 70.8919 20.3064 69.7706C22.0292 65.7142 23.7192 50.9198 31.0622 54.1781C32.785 54.9432 33.9641 56.6186 34.5732 58.406C35.8702 62.2118 35.3134 66.4002 37.1214 70.1136C37.6716 71.2415 38.4118 72.3892 39.5843 72.8179C40.4686 73.1411 41.4643 72.996 42.3551 72.6794C46.2592 71.2811 49.3706 66.8487 51.1654 63.2474C57.3294 50.9132 59.55 36.6068 57.5128 22.9601C56.8577 18.5804 55.2267 14.2074 50.8903 12.3606C47.6675 10.9886 43.9927 11.8263 40.6324 12.8487V12.8421Z" fill="#008BF8"/>
<path d="M29.2674 50.5636C21.9244 47.3053 20.2344 62.0997 18.5116 66.1561C18.0335 67.2774 17.3326 68.3723 16.2517 68.9198C14.7124 69.6981 12.8259 69.1572 11.3455 68.2668C8.88253 66.7827 6.93705 64.461 5.39116 61.7963C7.13357 65.9121 9.60962 69.7443 13.1337 71.8681C14.6141 72.7586 16.5007 73.2994 18.0335 72.5211C19.1143 71.9736 19.8152 70.8788 20.2933 69.7575C22.0161 65.701 23.7061 50.9066 31.0491 54.1649C31.8221 54.5079 32.4837 55.0422 33.0404 55.6886C32.9618 55.3852 32.8767 55.0883 32.7719 54.7915C32.1627 53.0041 30.9771 51.3221 29.2609 50.5636H29.2674Z" fill="#1D87CE"/>
<path d="M57.5128 22.9469C57.1132 20.2822 56.3534 17.624 54.8402 15.5332C55.2463 16.76 55.528 18.0462 55.7245 19.339C57.7617 32.9857 55.5346 47.2921 49.3772 59.6263C47.5824 63.221 44.4709 67.66 40.5669 69.0583C39.676 69.3749 38.6804 69.5266 37.796 69.1968C37.2393 68.9923 36.7807 68.623 36.3877 68.1745C36.5777 68.8274 36.8135 69.4738 37.1214 70.1004C37.6716 71.2283 38.4118 72.376 39.5843 72.8047C40.4686 73.1279 41.4643 72.9828 42.3551 72.6662C46.2592 71.2679 49.3706 66.8355 51.1654 63.2342C57.3294 50.9 59.55 36.5936 57.5128 22.9469Z" fill="#1D87CE"/>
<path d="M13.8084 21.8322C13.8084 21.8322 17.7518 31.7457 31.3046 28.5269C44.8574 25.3082 47.2876 11.6416 47.2876 11.6416C47.2876 11.6416 41.497 12.077 38.1105 13.9832C35.6475 15.0715 33.6627 16.5621 31.5208 18.1583C27.7215 20.9747 23.4703 23.9494 18.6164 23.7582C16.9264 23.6922 15.2495 23.2239 13.8019 22.4126" fill="white"/>
<path d="M58.6198 5.64603L64.168 6.72774L58.3578 7.7369L57.4866 13.4423L56.3534 7.80946L50.8183 6.71455L56.2682 5.38879L57.4997 0L58.6198 5.64603Z" fill="#008BF8"/>
<path d="M64.1156 15.6915L68 16.45L63.9256 17.1623L63.3165 21.1594L62.5239 17.2151L58.646 16.4434L62.4649 15.5134L63.3296 11.7406L64.1156 15.6915Z" fill="#008BF8"/>
</svg>
