<svg width="96" height="96" viewBox="0 0 96 96" fill="none" xmlns="http://www.w3.org/2000/svg">
<path d="M85.2852 19.0195C84.8112 18.7233 84.9599 18.8202 80.0703 15.9342L77.3296 11.2874C67.5247 -5.33758 43.4607 -2.88952 36.2068 13.9845C34.7191 17.445 29.5631 28.0234 29.5114 28.1297C29.105 28.9627 29.2723 29.9619 29.9278 30.6175L33.0168 33.7065L28.386 38.3371C27.5379 39.1853 27.5379 40.5604 28.386 41.4088L33.0167 46.0392L2.22424 76.8303C1.89255 77.1391 1.66287 77.5452 1.57606 78.0357C1.55356 78.1652 0.389562 86.3258 0.021876 88.8961C-0.0748735 89.5729 0.15275 90.2558 0.636123 90.7391L5.26116 95.364C5.7511 95.8539 6.43697 96.0736 7.10428 95.9782C9.83427 95.5876 17.8199 94.4494 17.965 94.4241C18.4575 94.3374 18.8657 94.1055 19.1743 93.7722L49.9632 62.985L54.5939 67.6155C55.4419 68.4635 56.8174 68.4635 57.6657 67.6155L62.2965 62.9848L65.3856 66.0738C66.0322 66.7204 67.0207 66.8968 67.8562 66.4986C67.965 66.4467 78.7812 61.2912 82.5573 59.556C98.8075 52.0888 101.053 28.8844 85.2852 19.0195ZM38.0038 68.8006L25.5396 59.6591L28.5984 56.6004L41.0626 65.7419L38.0038 68.8006ZM31.8373 74.9668L19.3731 65.8255L22.4318 62.767L34.896 71.9085L31.8373 74.9668ZM25.6706 81.1332L13.2064 71.9919L16.2651 68.9334L28.7293 78.0747L25.6706 81.1332ZM10.0986 75.0996L22.5628 84.2409L17.5887 89.2148L6.78572 78.4123L10.0986 75.0996ZM7.56515 91.5245L4.47592 88.4354L5.24973 83.0197L12.9809 90.7505L7.56515 91.5245ZM44.1704 62.6342L31.7062 53.4927L36.0885 49.1107L46.8914 59.9132L44.1704 62.6342ZM56.1299 63.0081C53.2022 60.0808 35.7189 42.598 32.9936 39.8728L36.0885 36.7781L59.2247 59.9134L56.1299 63.0081ZM80.7434 55.6088C77.7584 56.9804 70.4387 60.4584 67.3725 61.9175L34.0935 28.6399C35.5633 25.6102 38.9853 18.5203 40.1977 15.7C46.0705 2.03887 65.6194 -0.0154688 73.5877 13.4942L76.6128 18.6232C76.7994 18.9397 77.0632 19.2035 77.3797 19.3902C82.7125 22.5386 82.5605 22.4388 82.9812 22.702C95.8495 30.7529 93.8181 49.601 80.7434 55.6088Z" fill="white"/>
</svg>
