<svg width="38" height="38" viewBox="0 0 38 38" fill="none" xmlns="http://www.w3.org/2000/svg">
<mask id="mask0_564_66" style="mask-type:luminance" maskUnits="userSpaceOnUse" x="0" y="0" width="38" height="38">
<path d="M37.2972 37.9635V0.702839H0.0364586V37.9635H37.2972Z" fill="white" stroke="white" stroke-width="0.0729172"/>
</mask>
<g mask="url(#mask0_564_66)">
<path d="M35.8746 19.3333C35.8709 20.8679 35.8536 22.4026 35.8326 23.9371C35.8072 25.7886 35.7786 27.6408 35.3143 29.4605C34.8274 31.3688 33.8671 33.0145 32.373 34.2329C30.7986 35.5168 28.8956 36.1917 26.8417 36.3166C24.1175 36.4823 21.3921 36.5477 18.6668 36.5413C15.9415 36.5477 13.2161 36.4823 10.492 36.3166C8.43809 36.1917 6.53509 35.5168 4.96066 34.2329C3.46659 33.0145 2.50627 31.3688 2.01933 29.4605C1.55499 27.6408 1.52641 25.7886 1.50111 23.9371C1.48011 22.4026 1.46268 20.8679 1.45911 19.3333C1.46268 17.7987 1.48011 16.264 1.50111 14.7294C1.52641 12.878 1.55499 11.0258 2.01933 9.20604C2.50627 7.2978 3.46659 5.65205 4.96066 4.43368C6.53509 3.14975 8.43809 2.4749 10.492 2.35C13.2161 2.18433 15.9415 2.11885 18.6668 2.12527C21.3921 2.11885 24.1175 2.18433 26.8417 2.35C28.8956 2.4749 30.7986 3.14975 32.373 4.43368C33.8671 5.65205 34.8274 7.2978 35.3143 9.20604C35.7786 11.0258 35.8072 12.878 35.8326 14.7294C35.8536 16.264 35.8709 17.7987 35.8746 19.3333Z" stroke="white" stroke-width="2.91669" stroke-miterlimit="10"/>
<path d="M26.2502 19.3332C26.2502 23.5617 22.8224 26.9895 18.5939 26.9895C14.3654 26.9895 10.9376 23.5617 10.9376 19.3332C10.9376 15.1047 14.3654 11.6769 18.5939 11.6769C22.8224 11.6769 26.2502 15.1047 26.2502 19.3332Z" stroke="white" stroke-width="2.91669" stroke-miterlimit="10"/>
<path d="M28.7294 11.6405C29.9173 11.6405 30.8804 10.6774 30.8804 9.48949C30.8804 8.30153 29.9173 7.33843 28.7294 7.33843C27.5414 7.33843 26.5783 8.30153 26.5783 9.48949C26.5783 10.6774 27.5414 11.6405 28.7294 11.6405Z" fill="white" stroke="white" stroke-width="0.0729172"/>
</g>
</svg>
