<svg width="39" height="53" viewBox="0 0 39 53" fill="none" xmlns="http://www.w3.org/2000/svg">
<path d="M19.5 0C30.2883 0 39 8.55754 39 19.155C39 22.85 37.7984 26.3782 36.1266 29.2777L23.4183 50.8831C22.6216 52.2944 21.0151 53 19.5 53C17.9848 53 16.4568 52.2944 15.5817 50.8831L2.87341 29.2905C1.18855 26.3908 0 22.9267 0 19.1676C0 8.57036 8.71166 0 19.5 0ZM19.5 24.813C23.4183 24.813 26.6182 21.6697 26.6182 17.8207C26.6182 13.9717 23.4183 10.8284 19.5 10.8284C15.5817 10.8284 12.3818 13.9717 12.3818 17.8207C12.3818 21.6825 15.5817 24.813 19.5 24.813Z" fill="white"/>
</svg>
