<svg width="322" height="73" viewBox="0 0 322 73" fill="none" xmlns="http://www.w3.org/2000/svg">
<path d="M89.646 26.5246C92.7531 26.5246 95.4683 27.1404 97.7917 28.372C100.115 29.6037 101.906 31.3392 103.166 33.5785C104.454 35.7899 105.098 38.3511 105.098 41.2623C105.098 44.1454 104.454 46.7067 103.166 48.946C101.906 51.1854 100.101 52.9209 97.7497 54.1525C95.4264 55.3842 92.7251 56 89.646 56H78.6032V26.5246H89.646ZM89.1842 49.7858C91.8994 49.7858 94.0128 49.044 95.5243 47.5605C97.0359 46.0769 97.7917 43.9775 97.7917 41.2623C97.7917 38.5471 97.0359 36.4337 95.5243 34.9221C94.0128 33.4106 91.8994 32.6548 89.1842 32.6548H85.7832V49.7858H89.1842ZM131.196 43.9075C131.196 44.5793 131.154 45.2791 131.07 46.0069H114.82C114.932 47.4625 115.394 48.5822 116.206 49.3659C117.046 50.1217 118.067 50.4996 119.271 50.4996C121.063 50.4996 122.308 49.7438 123.008 48.2323H130.65C130.258 49.7718 129.544 51.1574 128.508 52.389C127.501 53.6207 126.227 54.5864 124.687 55.2862C123.148 55.986 121.426 56.3359 119.523 56.3359C117.228 56.3359 115.184 55.846 113.393 54.8663C111.601 53.8866 110.202 52.487 109.194 50.6675C108.186 48.8481 107.682 46.7207 107.682 44.2854C107.682 41.8501 108.172 39.7227 109.152 37.9033C110.16 36.0838 111.559 34.6842 113.351 33.7045C115.142 32.7248 117.2 32.2349 119.523 32.2349C121.79 32.2349 123.806 32.7108 125.569 33.6625C127.333 34.6142 128.704 35.9718 129.684 37.7353C130.692 39.4988 131.196 41.5562 131.196 43.9075ZM123.848 42.0181C123.848 40.7864 123.428 39.8067 122.588 39.0789C121.748 38.3511 120.699 37.9872 119.439 37.9872C118.235 37.9872 117.214 38.3371 116.374 39.0369C115.562 39.7367 115.058 40.7304 114.862 42.0181H123.848ZM149.259 32.3189C152.002 32.3189 154.186 33.2146 155.809 35.0061C157.461 36.7696 158.287 39.2049 158.287 42.312V56H151.149V43.2777C151.149 41.7102 150.743 40.4925 149.931 39.6248C149.119 38.757 148.028 38.3231 146.656 38.3231C145.284 38.3231 144.193 38.757 143.381 39.6248C142.569 40.4925 142.163 41.7102 142.163 43.2777V56H134.983V32.5708H142.163V35.6779C142.891 34.6422 143.871 33.8304 145.102 33.2426C146.334 32.6268 147.72 32.3189 149.259 32.3189ZM176.334 49.9118V56H172.681C170.078 56 168.049 55.3702 166.593 54.1105C165.137 52.8229 164.41 50.7375 164.41 47.8544V38.5331H161.554V32.5708H164.41V26.8605H171.589V32.5708H176.292V38.5331H171.589V47.9383C171.589 48.6381 171.757 49.142 172.093 49.4499C172.429 49.7578 172.989 49.9118 173.773 49.9118H176.334ZM178.906 44.2434C178.906 41.8361 179.354 39.7227 180.249 37.9033C181.173 36.0838 182.419 34.6842 183.986 33.7045C185.554 32.7248 187.303 32.2349 189.235 32.2349C190.886 32.2349 192.328 32.5708 193.56 33.2426C194.819 33.9144 195.785 34.7962 196.457 35.8878V32.5708H203.637V56H196.457V52.683C195.757 53.7746 194.777 54.6564 193.518 55.3282C192.286 56 190.844 56.3359 189.193 56.3359C187.289 56.3359 185.554 55.846 183.986 54.8663C182.419 53.8586 181.173 52.445 180.249 50.6256C179.354 48.7781 178.906 46.6507 178.906 44.2434ZM196.457 44.2854C196.457 42.4939 195.953 41.0803 194.945 40.0446C193.965 39.0089 192.762 38.4911 191.334 38.4911C189.907 38.4911 188.689 39.0089 187.681 40.0446C186.702 41.0523 186.212 42.4519 186.212 44.2434C186.212 46.0349 186.702 47.4625 187.681 48.5262C188.689 49.5619 189.907 50.0797 191.334 50.0797C192.762 50.0797 193.965 49.5619 194.945 48.5262C195.953 47.4905 196.457 46.0769 196.457 44.2854ZM216.011 24.929V56H208.831V24.929H216.011ZM227.677 44.5373C228.097 42.158 228.937 40.0866 230.196 38.3231C231.484 36.5317 233.051 35.1601 234.899 34.2083C236.746 33.2286 238.748 32.7388 240.903 32.7388C243.73 32.7388 245.928 33.4386 247.495 34.8382C249.091 36.2377 249.945 38.1412 250.056 40.5485H246.907C246.823 38.897 246.208 37.6093 245.06 36.6856C243.94 35.7339 242.415 35.258 240.483 35.258C238.104 35.258 236.005 36.0698 234.185 37.6933C232.394 39.2889 231.232 41.5702 230.7 44.5373C230.56 45.2371 230.49 46.0349 230.49 46.9306C230.49 49.17 231.092 50.8915 232.296 52.0951C233.527 53.2708 235.151 53.8586 237.166 53.8586C239.126 53.8586 240.833 53.3968 242.289 52.473C243.744 51.5213 244.822 50.2057 245.522 48.5262H248.671C247.719 50.8775 246.194 52.7669 244.094 54.1945C241.995 55.6221 239.546 56.3359 236.746 56.3359C233.919 56.3359 231.652 55.5241 229.944 53.9006C228.265 52.2771 227.425 50.0517 227.425 47.2246C227.425 46.3568 227.509 45.4611 227.677 44.5373ZM253.427 44.4953C253.847 42.144 254.687 40.0866 255.947 38.3231C257.206 36.5317 258.746 35.1601 260.565 34.2083C262.413 33.2286 264.386 32.7388 266.486 32.7388C268.669 32.7388 270.46 33.2426 271.86 34.2503C273.26 35.258 274.169 36.5457 274.589 38.1132L275.471 33.0747H278.41L274.379 56H271.44L272.322 50.9195C271.37 52.487 269.998 53.7886 268.207 54.8243C266.444 55.832 264.47 56.3359 262.287 56.3359C260.467 56.3359 258.872 55.958 257.5 55.2022C256.129 54.4465 255.065 53.3828 254.309 52.0112C253.553 50.6116 253.175 48.974 253.175 47.0986C253.175 46.2868 253.259 45.4191 253.427 44.4953ZM273.455 44.5373C273.595 43.7536 273.665 43.0538 273.665 42.4379C273.665 40.2546 273.008 38.5191 271.692 37.2315C270.376 35.9438 268.669 35.3 266.569 35.3C264.946 35.3 263.42 35.6639 261.993 36.3917C260.593 37.1195 259.404 38.1832 258.424 39.5828C257.444 40.9544 256.786 42.5919 256.45 44.4953C256.31 45.3351 256.24 46.0489 256.24 46.6367C256.24 48.8481 256.884 50.5976 258.172 51.8852C259.488 53.1448 261.195 53.7746 263.294 53.7746C264.862 53.7746 266.36 53.3968 267.787 52.641C269.243 51.8852 270.46 50.8075 271.44 49.4079C272.448 48.0083 273.12 46.3848 273.455 44.5373ZM287.261 37.6513C288.185 36.0558 289.389 34.8242 290.872 33.9564C292.356 33.0887 294.077 32.6548 296.037 32.6548L295.491 35.7199H294.651C292.636 35.7199 290.9 36.2377 289.445 37.2734C287.989 38.3091 286.981 40.0166 286.422 42.396L284.028 56H281.089L285.12 33.0747H288.059L287.261 37.6513ZM310.325 32.7388C312.257 32.7388 313.908 33.1167 315.28 33.8724C316.652 34.6002 317.687 35.6079 318.387 36.8956C319.115 38.1832 319.479 39.6528 319.479 41.3043C319.479 42.0601 319.423 42.7319 319.311 43.3197C319.143 44.1594 318.975 44.9152 318.807 45.587H299.786C299.702 46.1189 299.66 46.6227 299.66 47.0986C299.66 49.254 300.304 50.9195 301.592 52.0951C302.908 53.2708 304.573 53.8586 306.588 53.8586C308.52 53.8586 310.213 53.3968 311.669 52.473C313.125 51.5493 314.188 50.3037 314.86 48.7361H318.009C317.057 50.9755 315.532 52.8089 313.432 54.2365C311.361 55.6361 308.94 56.3359 306.169 56.3359C303.313 56.3359 301.018 55.5241 299.283 53.9006C297.575 52.2491 296.721 50.0097 296.721 47.1826C296.721 46.3428 296.805 45.4611 296.973 44.5373C297.393 42.158 298.233 40.0726 299.493 38.2811C300.78 36.4897 302.362 35.1181 304.237 34.1663C306.113 33.2146 308.142 32.7388 310.325 32.7388ZM316.288 43.4037C316.428 42.6199 316.498 41.9621 316.498 41.4302C316.498 39.4428 315.868 37.9173 314.608 36.8536C313.348 35.7899 311.739 35.258 309.78 35.258C308.352 35.258 306.98 35.5659 305.665 36.1818C304.349 36.7976 303.201 37.7213 302.222 38.953C301.242 40.1846 300.57 41.6682 300.206 43.4037H316.288Z" fill="black"/>
<path d="M40.6324 12.8421C40.5472 12.8685 40.4621 12.8948 40.3769 12.9212C34.0034 14.8736 27.8787 15.0715 21.7934 11.9055C15.7932 8.77904 6.77329 8.2184 2.8103 14.834C1.36265 17.2481 0.786218 20.0843 0.452147 22.8875C-0.720377 32.6625 0.511101 43.7699 2.72514 53.3536C4.21208 59.7978 7.18597 68.2932 13.1468 71.8813C14.6272 72.7718 16.5138 73.3126 18.0466 72.5343C19.1274 71.9868 19.8283 70.8919 20.3064 69.7706C22.0292 65.7142 23.7192 50.9198 31.0622 54.1781C32.785 54.9432 33.9641 56.6186 34.5732 58.406C35.8702 62.2118 35.3134 66.4002 37.1214 70.1136C37.6716 71.2415 38.4118 72.3892 39.5843 72.8179C40.4686 73.1411 41.4643 72.996 42.3551 72.6794C46.2592 71.2811 49.3706 66.8487 51.1654 63.2474C57.3294 50.9132 59.55 36.6068 57.5128 22.9601C56.8577 18.5804 55.2267 14.2074 50.8903 12.3606C47.6675 10.9886 43.9927 11.8263 40.6324 12.8487V12.8421Z" fill="#008BF8"/>
<path d="M29.2674 50.5636C21.9244 47.3053 20.2344 62.0997 18.5116 66.1561C18.0335 67.2774 17.3326 68.3723 16.2517 68.9198C14.7124 69.6981 12.8259 69.1572 11.3455 68.2668C8.88253 66.7827 6.93705 64.461 5.39116 61.7963C7.13357 65.9121 9.60962 69.7443 13.1337 71.8681C14.6141 72.7586 16.5007 73.2994 18.0335 72.5211C19.1143 71.9737 19.8152 70.8787 20.2933 69.7575C22.0161 65.701 23.7061 50.9066 31.0491 54.1649C31.8221 54.5079 32.4837 55.0422 33.0404 55.6886C32.9618 55.3852 32.8767 55.0883 32.7719 54.7915C32.1627 53.0041 30.9771 51.3221 29.2609 50.5636H29.2674Z" fill="#1D87CE"/>
<path d="M57.5128 22.9469C57.1132 20.2822 56.3534 17.624 54.8402 15.5332C55.2463 16.76 55.528 18.0462 55.7245 19.339C57.7617 32.9857 55.5346 47.2921 49.3772 59.6263C47.5824 63.221 44.4709 67.66 40.5669 69.0583C39.676 69.3749 38.6804 69.5266 37.796 69.1968C37.2393 68.9923 36.7807 68.623 36.3877 68.1745C36.5777 68.8274 36.8135 69.4738 37.1214 70.1004C37.6716 71.2283 38.4118 72.376 39.5843 72.8047C40.4686 73.1279 41.4643 72.9828 42.3551 72.6662C46.2592 71.2679 49.3706 66.8355 51.1654 63.2342C57.3294 50.9 59.55 36.5936 57.5128 22.9469Z" fill="#1D87CE"/>
<path d="M13.8084 21.8322C13.8084 21.8322 17.7518 31.7457 31.3046 28.5269C44.8574 25.3082 47.2876 11.6416 47.2876 11.6416C47.2876 11.6416 41.497 12.077 38.1105 13.9832C35.6475 15.0715 33.6627 16.5621 31.5208 18.1583C27.7215 20.9747 23.4703 23.9494 18.6164 23.7582C16.9264 23.6922 15.2495 23.2239 13.8019 22.4126" fill="white"/>
<path d="M58.6198 5.64603L64.168 6.72774L58.3578 7.7369L57.4866 13.4423L56.3534 7.80946L50.8183 6.71455L56.2682 5.38879L57.4997 0L58.6198 5.64603Z" fill="#008BF8"/>
<path d="M64.1156 15.6915L68 16.45L63.9256 17.1623L63.3165 21.1594L62.5239 17.2151L58.646 16.4434L62.4649 15.5134L63.3296 11.7406L64.1156 15.6915Z" fill="#008BF8"/>
</svg>
