<svg width="46" height="46" viewBox="0 0 46 46" fill="none" xmlns="http://www.w3.org/2000/svg">
<path d="M19.1665 46C22.6378 46 25.5416 43.5254 26.2084 40.25H12.1247C12.7919 43.5254 15.6956 46 19.1665 46Z" fill="#008BF8"/>
<path d="M33.6872 27.7838C33.6374 27.7838 33.5914 27.7915 33.5415 27.7915C25.0871 27.7915 18.2085 20.9129 18.2085 12.4585C18.2085 9.13669 19.2817 6.06831 21.0835 3.55339V1.91655C21.0835 0.856675 20.2247 6.85453e-07 19.1665 6.85453e-07C18.1088 6.85453e-07 17.25 0.856675 17.25 1.91655V3.98682C10.7581 4.9221 5.75 10.5054 5.75 17.25V22.5936C5.75 26.3867 4.08824 29.9671 1.17288 32.4318C0.42746 33.0702 0 33.9978 0 34.979C0 36.8289 1.50453 38.3335 3.35405 38.3335H34.979C36.8289 38.3335 38.3335 36.8289 38.3335 34.979C38.3335 33.9978 37.906 33.0702 37.1413 32.4167C35.6308 31.1382 34.4656 29.5474 33.6872 27.7838Z" fill="#008BF8"/>
<path d="M33.5415 0C26.6724 0 21.0835 5.58891 21.0835 12.4585C21.0835 19.3276 26.6724 24.9166 33.5415 24.9166C40.4111 24.9166 46 19.3276 46 12.4585C46 5.58891 40.4111 0 33.5415 0ZM35.4585 16.771C35.4585 17.5645 34.8145 18.2085 34.021 18.2085C33.2274 18.2085 32.5835 17.5645 32.5835 16.771V10.5416H31.625C30.8315 10.5416 30.1875 9.89755 30.1875 9.10405C30.1875 8.31055 30.8315 7.66655 31.625 7.66655H34.021C34.8145 7.66655 35.4585 8.31055 35.4585 9.10405V16.771Z" fill="#008BF8"/>
</svg>
