<svg width="32" height="36" viewBox="0 0 32 36" fill="none" xmlns="http://www.w3.org/2000/svg">
<path d="M31.0442 8.85203C29.0234 8.85203 27.159 8.1826 25.6617 7.05327C23.9446 5.75866 22.7108 3.85962 22.2751 1.67082C22.1672 1.13002 22.1092 0.571924 22.1036 0H16.3311L16.3242 24.4129C16.3242 26.7228 14.8201 28.6813 12.735 29.3701C12.1299 29.5699 11.4763 29.6647 10.7958 29.6273C9.92723 29.5796 9.11326 29.3175 8.40579 28.8943C6.90025 27.9939 5.8795 26.3604 5.85184 24.4918C5.80827 21.5713 8.16927 19.1902 11.0877 19.1902C11.6638 19.1902 12.217 19.2843 12.735 19.4551V13.5941C12.1886 13.5132 11.6326 13.471 11.0704 13.471C7.87605 13.471 4.88849 14.7988 2.75293 17.1909C1.13882 18.9987 0.170629 21.305 0.0212514 23.7234C-0.174462 26.9005 0.988059 29.9206 3.24256 32.1488C3.57382 32.4759 3.92168 32.7795 4.28544 33.0596C6.21837 34.5471 8.58144 35.3535 11.0704 35.3535C11.6326 35.3535 12.1886 35.312 12.735 35.2311C15.06 34.8867 17.2053 33.8224 18.8982 32.1488C20.9784 30.0928 22.1278 27.3632 22.1403 24.4579L22.1105 11.5561C23.1029 12.3216 24.188 12.9551 25.3526 13.4468C27.1638 14.211 29.0843 14.5982 31.0608 14.5976V8.85065C31.0622 8.85203 31.0456 8.85203 31.0442 8.85203Z" fill="white"/>
</svg>
